<svg width="36" height="36" viewBox="0 0 36 36" fill="none" xmlns="http://www.w3.org/2000/svg">
<defs>
<linearGradient id="paint0_linear_47_558" x1="0" y1="18" x2="36" y2="18" gradientUnits="userSpaceOnUse">
<stop stop-color="#3BC6FB"/>
<stop offset="1" stop-color="#00FFCC"/>
</linearGradient>
<clipPath id="clip0_47_558">
<rect width="18" height="18" fill="white" transform="translate(9 9)"/>
</clipPath>
</defs>
<circle cx="18" cy="18" r="18" fill="url(#paint0_linear_47_558)"/>
<g clip-path="url(#clip0_47_558)">
<path d="M11.25 24.75H14.0625L22.3575 16.455L19.545 13.6425L11.25 21.9375V24.75ZM12.75 22.56L19.545 15.765L20.235 16.455L13.44 23.25H12.75V22.56ZM22.7775 11.4675C22.7081 11.398 22.6257 11.3428 22.535 11.3052C22.4442 11.2675 22.347 11.2482 22.2488 11.2482C22.1505 11.2482 22.0533 11.2675 21.9625 11.3052C21.8718 11.3428 21.7894 11.398 21.72 11.4675L20.3475 12.84L23.16 15.6525L24.5325 14.28C24.602 14.2106 24.6572 14.1282 24.6948 14.0375C24.7325 13.9467 24.7518 13.8495 24.7518 13.7513C24.7518 13.653 24.7325 13.5558 24.6948 13.465C24.6572 13.3743 24.602 13.2919 24.5325 13.2225L22.7775 11.4675Z" fill="white"/>
</g>
</svg>
