<svg width="34" height="34" viewBox="0 0 34 34" fill="none" xmlns="http://www.w3.org/2000/svg">
<path d="M16.9867 3.1875C9.36328 3.1875 3.1875 9.37656 3.1875 17C3.1875 24.6234 9.36328 30.8125 16.9867 30.8125C24.6234 30.8125 30.8125 24.6234 30.8125 17C30.8125 9.37656 24.6234 3.1875 16.9867 3.1875ZM17 28.05C10.8973 28.05 5.95 23.1027 5.95 17C5.95 10.8973 10.8973 5.95 17 5.95C23.1027 5.95 28.05 10.8973 28.05 17C28.05 23.1027 23.1027 28.05 17 28.05Z" fill="black" fill-opacity="0.5"/>
<path d="M17.6905 10.0938H15.6187V18.3812L22.8702 22.7309L23.9062 21.0309L17.6905 17.3453V10.0938Z" fill="black" fill-opacity="0.5"/>
</svg>
